<svg xmlns="http://www.w3.org/2000/svg" viewBox="234 0 50 50"><defs><style>.cls-1{fill:#f48022;fill-rule:evenodd;}.cls-2{fill:#0472b3;fill-rule:evenodd;}</style></defs><path class="cls-1" d="M249.86,29.9c2.85-5.67,7.14-12.65,12.74-16A35.43,35.43,0,0,1,269.32,11c3.18-1.28,1.26-2-1.07-2a16.59,16.59,0,0,0-11.53,5.39,49.67,49.67,0,0,0-8.24,12.75l-2-1a45.21,45.21,0,0,1,4-7.19c4.08-6.28,6.72-9.43,13.16-12.07,3.22-1.28,1.91-2.94-1-2-8.33,2.59-13.37,9.94-17.76,16.88l-1.49-.87c1.91-5.65,7.86-14.33,14.09-16.78,5.37-2.1,2.69-4.85-1.56-3.85C245.4,2.73,236.4,12.09,234.93,22.9c-.66,4.73.42,11.15,5.08,13.51,4.18,2.1,9.9.56,14.75-2.48a27.36,27.36,0,0,0,8.33-8.4c2-2.87,3.15-4.62,3.13-8.3,0-2.76-1.56-2.08-3.48-.28-4.17,3.89-6.7,8.14-9.5,13Z"/><path class="cls-2" d="M271.26,26c-.47,1.93-2.4,4.85-3.87,7a27.12,27.12,0,0,1-8.26,8.09,27.23,27.23,0,0,1-7.19,2.69c-6.07,1.31-4.95,3.9.65,2.61,12-2.75,13.79-8,19.84-15.94,1-1.3,1.89-.77,1.54.7a22.29,22.29,0,0,1-4.18,7.54c-3.2,3.87-5.86,5.3-9.73,8-1.26.87-3.2,2.85-.82,3.76,2.06.79,4.13-.72,5.95-1.56,6.75-3.13,11.25-4.9,14.7-12,2.45-5,2.59-10.38,2.15-16.1a12.26,12.26,0,0,0-.68-3.66c-.35-.91-.88-1.52-2.4-2.73-4.48-3.62-9.43-.77-11.13,4.15-2.15,6.19-5.13,11.41-9.47,15.26a24,24,0,0,1-8.92,5c-1.7.52-3.31.84-5,1.36-2.7.84.28,2.61,1.82,2.42a28.2,28.2,0,0,0,5-1.16,25.05,25.05,0,0,0,8.66-4.27,32,32,0,0,0,5.51-6.12c1.56-2.14,2.92-4.29,4.18-6.2.88-1.36,2-.45,1.63,1.12Z"/></svg>
